# xmcd
#
# Track frame offsets:
#   150
#   14745
#   27500
#   41655
#   52835
#   71245
#   83667
#   95262
#   111645
#   122627
#   133635
#   153342
#   163997
#   180435
#   192862
#   204730
#   215722
#   232680
#
# Disc length: 3247 seconds
#
# Revision: 0
# Processed by: cddbd v1.4PL0 Copyright (c) Steve Scherf et al.
# Submitted via: uFREEDB 1.6.0
#
DISCID=fe0cad12
DTITLE=Various Artist - Romantic Moments vol.1
DYEAR=1900
DGENRE=Blues
TTITLE0=We've only just begun
TTITLE1=The way we were
TTITLE2=Someone to watch over me
TTITLE3=You're nobody till somebody loves you
TTITLE4=With a song in my heart
TTITLE5=Stop! In the name of love
TTITLE6=Are you lonesome tonight
TTITLE7=Embraceable you
TTITLE8=A whiter shade of pale
TTITLE9=Close to you
TTITLE10=If I loved you
TTITLE11=It's impossible
TTITLE12=I want you, I need you, I love you
TTITLE13=Love letters
TTITLE14=Crazy
TTITLE15=Take these chains from my heart
TTITLE16=The way you look tonight
TTITLE17=Tennessee Waltz
EXTD=
EXTT0=
EXTT1=
EXTT2=
EXTT3=
EXTT4=
EXTT5=
EXTT6=
EXTT7=
EXTT8=
EXTT9=
EXTT10=
EXTT11=
EXTT12=
EXTT13=
EXTT14=
EXTT15=
EXTT16=
EXTT17=
PLAYORDER=
